MSD_FD_states
version=1
nRows=32
nColumns=9
inDegrees=yes

# SIMM Motion File Header:
name MSD_FD_states
datacolumns 9
datarows 32
otherdata 1
range 2.51504906 2.52802559
endheader
time	/jointset/PelvisToPlatform/Block_rotation/value	/jointset/PelvisToPlatform/Block_rotation/speed	/jointset/PelvisToPlatform/Block_tx/value	/jointset/PelvisToPlatform/Block_tx/speed	/jointset/PelvisToPlatform/Block_ty/value	/jointset/PelvisToPlatform/Block_ty/speed	/forceset/muscle1/activation	/forceset/muscle1/normalized_tendon_force
      2.51504906	     12.59159817	    -37.60823989	     -0.18890459	     -0.37177309	      0.20000000	     -0.00000000	      0.75721808	      0.29045181
      2.51552712	     12.57299794	    -40.20845835	     -0.18908232	     -0.37177815	      0.20000000	     -0.00000000	      0.75697846	      0.29032857
      2.51595530	     12.55528225	    -42.53950975	     -0.18924151	     -0.37177662	      0.20000000	     -0.00000000	      0.75676384	      0.29018499
      2.51638349	     12.53656808	    -44.87212149	     -0.18940069	     -0.37176941	      0.20000000	     -0.00000000	      0.75654922	      0.29008438
      2.51681167	     12.51685479	    -47.20627764	     -0.18955988	     -0.37175655	      0.20000000	     -0.00000000	      0.75633460	      0.28992961
      2.51723986	     12.49614180	    -49.54149195	     -0.18971905	     -0.37173809	      0.20000000	     -0.00000000	      0.75611997	      0.28983692
      2.51760777	     12.47754573	    -51.54888457	     -0.18985582	     -0.37171777	      0.20000000	     -0.00000000	      0.75593556	      0.28969963
      2.51797568	     12.45821103	    -53.55676053	     -0.18999257	     -0.37169337	      0.20000000	     -0.00000000	      0.75575115	      0.28960017
      2.51844796	     12.43230841	    -56.13490118	     -0.19016811	     -0.37165611	      0.20000000	     -0.00000000	      0.75551442	      0.28944433
      2.51892024	     12.40518809	    -58.71334856	     -0.19034362	     -0.37161220	      0.20000000	     -0.00000000	      0.75527769	      0.28932434
      2.51928459	     12.38343376	    -60.70268432	     -0.19047901	     -0.37157382	      0.20000000	     -0.00000000	      0.75509506	      0.28918603
      2.51964893	     12.36095465	    -62.69185008	     -0.19061438	     -0.37153155	      0.20000000	     -0.00000000	      0.75491243	      0.28908181
      2.52013779	     12.32965476	    -65.36047960	     -0.19079600	     -0.37146875	      0.20000000	     -0.00000000	      0.75466739	      0.28891567
      2.52057601	     12.30048856	    -67.75195603	     -0.19095877	     -0.37140659	      0.20000000	     -0.00000000	      0.75444773	      0.28879517
      2.52101423	     12.27027455	    -70.14268099	     -0.19112151	     -0.37133891	      0.20000000	     -0.00000000	      0.75422807	      0.28862602
      2.52139485	     12.24318184	    -72.21818059	     -0.19126284	     -0.37127569	      0.20000000	     -0.00000000	      0.75403729	      0.28852712
      2.52177547	     12.21529932	    -74.29277655	     -0.19140414	     -0.37120838	      0.20000000	     -0.00000000	      0.75384650	      0.28838806
      2.52215609	     12.18662739	    -76.36617400	     -0.19154542	     -0.37113700	      0.20000000	     -0.00000000	      0.75365571	      0.28826994
      2.52268482	     12.14548910	    -79.24425767	     -0.19174162	     -0.37103114	      0.20000000	     -0.00000000	      0.75339068	      0.28807769
      2.52306944	     12.11460777	    -81.33598667	     -0.19188431	     -0.37094928	      0.20000000	     -0.00000000	      0.75319788	      0.28796854
      2.52345406	     12.08292224	    -83.42606162	     -0.19202697	     -0.37086336	      0.20000000	     -0.00000000	      0.75300509	      0.28782552
      2.52392411	     12.04310796	    -85.97772095	     -0.19220127	     -0.37075290	      0.20000000	     -0.00000000	      0.75276947	      0.28767913
      2.52434384	     12.00654298	    -88.25365192	     -0.19235686	     -0.37064922	      0.20000000	     -0.00000000	      0.75255907	      0.28751352
      2.52476357	     11.96902330	    -90.52678868	     -0.19251241	     -0.37054083	      0.20000000	     -0.00000000	      0.75234868	      0.28738957
      2.52518330	     11.93055011	    -92.79711595	     -0.19266791	     -0.37042776	      0.20000000	     -0.00000000	      0.75213828	      0.28721851
      2.52560303	     11.89112466	    -95.06421334	     -0.19282337	     -0.37031006	      0.20000000	     -0.00000000	      0.75192788	      0.28709579
      2.52602275	     11.85074833	    -97.32809687	     -0.19297877	     -0.37018775	      0.20000000	     -0.00000000	      0.75171749	      0.28691872
      2.52644248	     11.80942253	    -99.58831450	     -0.19313412	     -0.37006089	      0.20000000	     -0.00000000	      0.75150709	      0.28679793
      2.52686221	     11.76714882	   -101.84491938	     -0.19328942	     -0.36992950	      0.20000000	     -0.00000000	      0.75129669	      0.28661416
      2.52728194	     11.72392878	   -104.09742163	     -0.19344466	     -0.36979363	      0.20000000	     -0.00000000	      0.75108629	      0.28649619
      2.52765377	     11.68485215	   -106.08951076	     -0.19358214	     -0.36966955	      0.20000000	     -0.00000000	      0.75089990	      0.28633332
      2.52802559	     11.64503546	   -108.07810247	     -0.19371957	     -0.36954201	      0.20000000	     -0.00000000	      0.75071351	      0.28620930
